<!-- Exported by Character Map UWP -->
<svg height="100%" viewBox="0 0 1024 1024" width="100%" xmlns="http://www.w3.org/2000/svg" xmlns:xlink="http://www.w3.org/1999/xlink">
  <path d="M320,448C311,448 302.667,446.333 295,443C287.333,439.667 280.583,435.083 274.75,429.25C268.917,423.417 264.333,416.667 261,409C257.667,401.333 256,393 256,384C256,375 257.667,366.667 261,359C264.333,351.333 268.917,344.583 274.75,338.75C280.583,332.917 287.333,328.333 295,325C302.667,321.667 311,320 320,320C329,320 337.333,321.667 345,325C352.667,328.333 359.417,332.917 365.25,338.75C371.083,344.583 375.667,351.333 379,359C382.333,366.667 384,375 384,384C384,393 382.333,401.333 379,409C375.667,416.667 371.083,423.417 365.25,429.25C359.417,435.083 352.667,439.667 345,443C337.333,446.333 329,448 320,448ZM704,448C695,448 686.667,446.333 679,443C671.333,439.667 664.583,435.083 658.75,429.25C652.917,423.417 648.333,416.667 645,409C641.667,401.333 640,393 640,384C640,375 641.667,366.667 645,359C648.333,351.333 652.917,344.583 658.75,338.75C664.583,332.917 671.333,328.333 679,325C686.667,321.667 695,320 704,320C713,320 721.333,321.667 729,325C736.667,328.333 743.417,332.917 749.25,338.75C755.083,344.583 759.667,351.333 763,359C766.333,366.667 768,375 768,384C768,393 766.333,401.333 763,409C759.667,416.667 755.083,423.417 749.25,429.25C743.417,435.083 736.667,439.667 729,443C721.333,446.333 713,448 704,448ZM512,0C559,0 604.333,6.08337 648,18.25C691.667,30.4167 732.5,47.5834 770.5,69.75C808.5,91.9167 843.083,118.583 874.25,149.75C905.417,180.917 932.083,215.5 954.25,253.5C976.417,291.5 993.583,332.333 1005.75,376C1017.92,419.667 1024,465 1024,512C1024,559 1017.92,604.333 1005.75,648C993.583,691.667 976.417,732.5 954.25,770.5C932.083,808.5 905.417,843.083 874.25,874.25C843.083,905.417 808.5,932.083 770.5,954.25C732.5,976.417 691.667,993.583 648,1005.75C604.333,1017.92 559,1024 512,1024C465,1024 419.667,1017.92 376,1005.75C332.333,993.583 291.5,976.417 253.5,954.25C215.5,932.083 180.917,905.417 149.75,874.25C118.583,843.083 91.9167,808.5 69.75,770.5C47.5833,732.5 30.4167,691.75 18.25,648.25C6.08333,604.75 0,559.333 0,512C0,465 6.08333,419.667 18.25,376C30.4167,332.333 47.5833,291.5 69.75,253.5C91.9167,215.5 118.583,180.917 149.75,149.75C180.917,118.583 215.5,91.9167 253.5,69.75C291.5,47.5834 332.25,30.4167 375.75,18.25C419.25,6.08337 464.667,0 512,0ZM512,960C553,960 592.583,954.667 630.75,944C668.917,933.333 704.583,918.25 737.75,898.75C770.917,879.25 801.167,855.833 828.5,828.5C855.833,801.167 879.25,770.917 898.75,737.75C918.25,704.583 933.333,669 944,631C954.667,593 960,553.333 960,512C960,471 954.667,431.417 944,393.25C933.333,355.083 918.25,319.417 898.75,286.25C879.25,253.083 855.833,222.833 828.5,195.5C801.167,168.167 770.917,144.75 737.75,125.25C704.583,105.75 668.917,90.6667 630.75,80C592.583,69.3334 553,64.0001 512,64C471,64.0001 431.417,69.3334 393.25,80C355.083,90.6667 319.417,105.75 286.25,125.25C253.083,144.75 222.833,168.167 195.5,195.5C168.167,222.833 144.75,253.083 125.25,286.25C105.75,319.417 90.6667,355.083 80,393.25C69.3333,431.417 64,471 64,512C64,553 69.3333,592.583 80,630.75C90.6667,668.917 105.75,704.583 125.25,737.75C144.75,770.917 168.167,801.167 195.5,828.5C222.833,855.833 253.083,879.25 286.25,898.75C319.417,918.25 355,933.333 393,944C431,954.667 470.667,960 512,960ZM512,768C536.333,768 559.917,764.667 582.75,758C605.583,751.333 626.833,741.833 646.5,729.5C666.167,717.167 683.917,702.167 699.75,684.5C715.583,666.833 729,647.167 740,625.5L797.5,654.5C783.833,681.5 767,706 747,728C727,750 704.667,768.667 680,784C655.333,799.333 628.75,811.167 600.25,819.5C571.75,827.833 542.333,832 512,832C481.333,832 451.833,827.833 423.5,819.5C395.167,811.167 368.667,799.333 344,784C319.333,768.667 297,750 277,728C257,706 240.167,681.5 226.5,654.5L284,625.5C295,647.167 308.417,666.833 324.25,684.5C340.083,702.167 357.833,717.167 377.5,729.5C397.167,741.833 418.333,751.333 441,758C463.667,764.667 487.333,768 512,768Z" fill="#000000" fill-opacity="1">
  </path>
</svg>